<?xml version="1.0" encoding="UTF-8"?>
<svg xmlns="http://www.w3.org/2000/svg" xmlns:xlink="http://www.w3.org/1999/xlink" viewBox="410 952 1170 96">
  <defs>
    <linearGradient id="gradRight" x1="1092.58" y1="1000" x2="1717.95" y2="1000" gradientUnits="userSpaceOnUse">
      <stop offset="0" stop-color="#444"/>
      <stop offset=".04" stop-color="#636363"/>
      <stop offset=".09" stop-color="#888"/>
      <stop offset=".14" stop-color="#a8a8a8"/>
      <stop offset=".21" stop-color="#c3c3c3"/>
      <stop offset=".28" stop-color="#d9d9d9"/>
      <stop offset=".36" stop-color="#eaeaea"/>
      <stop offset=".46" stop-color="#f6f6f6"/>
      <stop offset=".6" stop-color="#fdfdfd"/>
      <stop offset="1" stop-color="#fff"/>
    </linearGradient>
    <linearGradient id="gradLeft" x1="707.98" y1="1000" x2="1066.61" y2="1000" gradientUnits="userSpaceOnUse">
      <stop offset="0" stop-color="#444"/>
      <stop offset=".02" stop-color="#4d4d4d"/>
      <stop offset=".09" stop-color="#777"/>
      <stop offset=".17" stop-color="#9b9b9b"/>
      <stop offset=".25" stop-color="#bababa"/>
      <stop offset=".35" stop-color="#d3d3d3"/>
      <stop offset=".45" stop-color="#e7e7e7"/>
      <stop offset=".57" stop-color="#f4f4f4"/>
      <stop offset=".72" stop-color="#fcfcfc"/>
      <stop offset="1" stop-color="#fff"/>
    </linearGradient>
  </defs>
  <g>
    <polygon fill="url(#gradRight)" points="1092.58 994.62 1717.95 1000 1092.58 1005.38 1092.58 994.62"/>
    <polygon fill="url(#gradLeft)" points="1066.61 994.63 970.19 997.78 707.98 1000 967.6 1002.2 1066.61 1005.37 1066.61 994.63"/>
    <g fill="#fff">
      <path d="M478.52,969.03c-3.96-3.91-8.62-6.95-13.99-9.12-5.37-2.16-11.22-3.25-17.55-3.25h-32.1v86.68h32.35c6.24,0,12.05-1.08,17.42-3.25,5.37-2.16,10.01-5.2,13.93-9.12,3.91-3.91,6.97-8.51,9.18-13.8,2.21-5.29,3.31-11.01,3.31-17.17s-1.1-11.99-3.31-17.24c-2.21-5.25-5.29-9.82-9.24-13.74ZM474.9,1016.86c-2.71,4.91-6.49,8.76-11.36,11.55-4.87,2.79-10.47,4.18-16.8,4.18h-20.11v-65.2h20.11c6.33,0,11.91,1.4,16.74,4.18,4.83,2.79,8.62,6.62,11.37,11.49,2.75,4.87,4.12,10.47,4.12,16.8s-1.35,12.07-4.06,16.99Z"/>
      <polygon points="632.22 1012.37 598.31 956.66 590.07 956.66 590.07 1043.34 601.8 1043.34 601.8 982.34 628.03 1025.6 636.4 1025.6 662.63 982.34 662.63 1043.34 674.37 1043.34 674.37 956.66 666.13 956.66 632.22 1012.37"/>
      <polygon points="1181.25 1020.79 1133.04 956.66 1124.8 956.66 1124.8 1043.34 1136.54 1043.34 1136.54 979.06 1184.74 1043.34 1192.99 1043.34 1192.99 956.66 1181.25 956.66 1181.25 1020.79"/>
      <polygon points="1245.05 967.4 1274.4 967.4 1274.4 1043.34 1286.27 1043.34 1286.27 967.4 1315.62 967.4 1315.62 956.66 1245.05 956.66 1245.05 967.4"/>
      <path d="M1420.51,1011.12c0,4.5-.94,8.41-2.81,11.74-1.87,3.33-4.42,5.91-7.62,7.74-3.21,1.83-6.89,2.75-11.05,2.75s-7.89-.92-11.18-2.75c-3.29-1.83-5.89-4.41-7.81-7.74-1.92-3.33-2.87-7.29-2.87-11.87v-54.33h-11.87v54.58c0,6.33,1.48,12.01,4.43,17.05,2.95,5.04,6.97,9.01,12.05,11.93,5.08,2.92,10.82,4.37,17.23,4.37s12.12-1.46,17.11-4.37c5-2.91,8.95-6.87,11.87-11.87,2.91-5,4.37-10.66,4.37-16.99v-54.7h-11.87v54.45Z"/>
      <polygon points="1565.87 956.66 1531.96 1012.37 1498.05 956.66 1489.81 956.66 1489.81 1043.34 1501.55 1043.34 1501.55 982.34 1527.78 1025.6 1536.15 1025.6 1562.37 982.34 1562.37 1043.34 1574.11 1043.34 1574.11 956.66 1565.87 956.66"/>
      <polygon points="912.32 1012.37 878.41 956.66 870.17 956.66 870.17 1043.34 881.91 1043.34 881.91 982.34 908.14 1025.6 916.5 1025.6 942.73 982.34 942.73 1043.34 954.47 1043.34 954.47 956.66 946.23 956.66 912.32 1012.37"/>
      <path d="M803.24,968.28c-4-4.08-8.64-7.24-13.93-9.49-5.29-2.25-11.01-3.37-17.17-3.37s-11.89,1.12-17.17,3.37c-5.29,2.25-9.91,5.41-13.86,9.49-3.96,4.08-7.06,8.81-9.3,14.18-2.25,5.37-3.37,11.18-3.37,17.42s1.13,11.95,3.37,17.36c2.25,5.41,5.37,10.18,9.37,14.3,4,4.12,8.66,7.33,13.99,9.62,5.33,2.29,11.07,3.43,17.24,3.43s11.76-1.15,17.05-3.43c5.29-2.29,9.91-5.47,13.86-9.55,3.95-4.08,7.06-8.83,9.3-14.24,2.25-5.41,3.37-11.2,3.37-17.36s-1.12-12.07-3.37-17.49c-2.25-5.41-5.37-10.16-9.37-14.24ZM799.68,1017.17c-2.71,5.04-6.43,8.99-11.18,11.87-4.75,2.87-10.2,4.31-16.36,4.31-4.58,0-8.81-.83-12.68-2.5-3.87-1.66-7.2-3.97-9.99-6.93-2.79-2.95-4.96-6.49-6.5-10.62-1.54-4.12-2.31-8.6-2.31-13.43,0-6.49,1.35-12.24,4.06-17.23,2.71-5,6.41-8.91,11.12-11.74,4.7-2.83,10.14-4.25,16.3-4.25,4.66,0,8.91.81,12.74,2.43,3.83,1.62,7.16,3.93,9.99,6.93,2.83,3,5.02,6.52,6.56,10.55,1.54,4.04,2.31,8.47,2.31,13.3,0,6.49-1.35,12.26-4.06,17.3Z"/>
      <polygon points="1013.03 956.66 1013.03 967.4 1013.03 982.12 1023.77 982.12 1023.77 967.4 1070.11 967.4 1070.11 956.66 1023.77 956.66 1013.03 956.66"/>
      <polygon points="1023.77 1017.88 1013.03 1017.88 1013.03 1032.6 1013.03 1043.34 1023.77 1043.34 1070.11 1043.34 1070.11 1032.6 1023.77 1032.6 1023.77 1017.88"/>
    </g>
  </g>
</svg>
